<svg xmlns="http://www.w3.org/2000/svg" xmlns:xlink="http://www.w3.org/1999/xlink" width="67" height="67" viewBox="0 0 67 67"><defs><path id="dcnda" d="M1036 984a32 32 0 1 1 0 64 32 32 0 0 1 0-64z"/><path id="dcndb" d="M1041.77 1026.4h-17.96a2.07 2.07 0 0 1-2.07-2.06v-10.26c0-1.14.93-2.07 2.07-2.07h10.76v-1.78a.5.5 0 0 0-.5-.5h-12.83a.78.78 0 1 1 0-1.57h12.84c1.13 0 2.06.93 2.06 2.07v1.78h3.57v-3.07c0-1.14.92-2.06 2.06-2.06h1.94a2.07 2.07 0 0 1 1.91-1.29h3.85a2.07 2.07 0 0 1 0 4.14h-3.85c-.86 0-1.6-.53-1.91-1.29h-1.94a.5.5 0 0 0-.5.5v3.07h.5c1.14 0 2.07.93 2.07 2.07v2.03l5.66-2.36a1.48 1.48 0 0 1 2.04 1.36v8.2a1.47 1.47 0 0 1-2.04 1.35l-5.66-2.35v2.03c0 1.14-.93 2.07-2.07 2.07zm-17.96-12.82a.5.5 0 0 0-.5.5v10.26c0 .28.23.5.5.5h17.96a.5.5 0 0 0 .5-.5v-3.2-3.84-3.23a.5.5 0 0 0-.5-.5zm4.5 8.34a2.71 2.71 0 0 1 0-5.42h8.97a2.71 2.71 0 1 1-2.45 1.57h-4.07a2.71 2.71 0 0 1-2.46 3.85zm0-3.85a1.14 1.14 0 1 0 0 2.28 1.14 1.14 0 0 0 0-2.28zm8.97 0a1.14 1.14 0 1 0 0 2.28 1.14 1.14 0 0 0 0-2.28zm8.34-10.9a.5.5 0 0 0 0 .99h3.85a.5.5 0 0 0 0-1zm4.35 16v-7.92l-6.13 2.55v2.81z"/></defs><g><g transform="translate(-1002 -982)"><g><use fill="#65bf95" xlink:href="#dcnda"/></g><g><use fill="#fff" xlink:href="#dcndb"/></g></g></g></svg>