<svg xmlns="http://www.w3.org/2000/svg" xmlns:xlink="http://www.w3.org/1999/xlink" width="64" height="64" viewBox="0 0 67 67"><defs><path id="br7ca" d="M182 760a32 32 0 1 1 0 64 32 32 0 0 1 0-64z"/><path id="br7cb" d="M184.13 809.54h-1.28c-1 0-2.92-.83-2.92-2.12v-9.63c0-1.33 1.35-2.3 2.57-2.6v-3.12a.5.5 0 0 0-.5-.5h-10.26a2.07 2.07 0 0 1-2.07-2.06v-5.13c0-1.14.93-2.07 2.07-2.07h.5v-3.07c0-.43.35-.78.78-.78h19.24c.44 0 .79.35.79.78v3.07h.5a.78.78 0 1 1 0 1.57h-.5v3.06c0 .44-.35.79-.79.79h-19.24a.78.78 0 0 1-.78-.79v-3.06h-.5a.5.5 0 0 0-.5.5v5.13c0 .27.23.5.5.5H182c1.14 0 2.07.93 2.07 2.06v3.12c1.22.3 2.56 1.27 2.56 2.6v9.63c0 1.17-1.37 2.12-2.5 2.12zm-.85-12.89c-.76 0-1.78.65-1.78 1.14v9.63c.1.15.9.55 1.35.55h1.28c.38 0 .91-.38.94-.56v-9.62c0-.49-1.02-1.14-1.79-1.14zm-9.48-10.49h17.68v-6.13H173.8z"/></defs><g><g transform="translate(-148 -758)"><g><use fill="#65bf95" xlink:href="#br7ca"/></g><g><use fill="#fff" xlink:href="#br7cb"/></g></g></g></svg>