<svg xmlns="http://www.w3.org/2000/svg" xmlns:xlink="http://www.w3.org/1999/xlink" width="67" height="67" viewBox="0 0 67 67"><defs><path id="jcp2a" d="M1036 760a32 32 0 1 1 0 64 32 32 0 0 1 0-64z"/><path id="jcp2b" d="M1038.57 783.8H1036a.78.78 0 1 1 0-1.56h2.57a.78.78 0 1 1 0 1.56zm5.77 2.57h-7.06a.78.78 0 1 1 0-1.57h7.06a.78.78 0 1 1 0 1.57zm-.64 2.56h-8.34a.78.78 0 1 1 0-1.56h8.34a.78.78 0 0 1 0 1.56zm.64 2.57h-8.98a.78.78 0 1 1 0-1.57h8.98a.78.78 0 1 1 0 1.57zm-1.28 2.57h-7.7a.78.78 0 1 1 0-1.57h7.7a.78.78 0 1 1 0 1.57zm.64 2.56h-8.98a.78.78 0 1 1 0-1.56h8.98a.78.78 0 0 1 0 1.56zm-7.09 10.27h-15.45a.78.78 0 0 1 .09-1.57c.7 0 .92-.24 1-.32.5-.55.37-1.93.26-3.16-.13-1.45-.26-2.81.49-3.63.24-.27.7-.59 1.45-.59h5.77c1.27-6.99 1.15-17.7 1.15-17.8.02-1.33.69-2.73 2.1-2.73h16c1.87 0 2.07 3.24 2.07 4.64 0 .43-.35.78-.78.78h-1.78c.03 5.72-.25 18.2-3.06 21.07-.47.5-1.02.74-1.61.74h-4.66c-.14.68-.4 1.3-.86 1.76-.53.54-1.26.8-2.18.8zm-3.68-27.07c.01.42.12 10.68-1.12 17.8h8.65c.69 0 1.23.2 1.61.58.64.64.63 1.6.62 2.46 0 .7-.02 1.42.31 1.75.23.23.67.34 1.3.34.07 0 .24 0 .5-.26 2.28-2.34 2.66-14.35 2.6-20.71v-.05-.04c0-.7-.01-1.33-.03-1.87.01-.4.07-.8.2-1.16h-14.1c-.42 0-.53.97-.54 1.16zm-8.48 19.37c-.15 0-.25.02-.3.08-.27.3-.16 1.53-.08 2.43.1 1.23.23 2.58-.2 3.62h12.74c.5 0 .84-.11 1.07-.34.57-.58.56-1.97.55-3.2 0-.95-.01-1.85.2-2.6zm16.67 1.45c0-.52.01-1.16-.16-1.34-.07-.07-.26-.11-.5-.11-.25 0-.32.07-.35.1-.33.33-.32 1.52-.31 2.48v.98h1.59c-.28-.67-.27-1.45-.27-2.11zm7.85-19.7h.97c-.08-1.05-.3-2.03-.52-2.28-.41.1-.48 1.14-.48 1.15l.03 1.13z"/></defs><g><g transform="translate(-1002 -758)"><g><use fill="#65bf95" xlink:href="#jcp2a"/></g><g><use fill="#fff" xlink:href="#jcp2b"/></g></g></g></svg>