<svg xmlns="http://www.w3.org/2000/svg" xmlns:xlink="http://www.w3.org/1999/xlink" width="67" height="67" viewBox="0 0 67 67"><defs><path id="a4cua" d="M609 760a32 32 0 1 1 0 64 32 32 0 0 1 0-64z"/><path id="a4cub" d="M609 802.35c-.52 0-1.02-.03-1.4-.1l-.38-.07v2a29.59 29.59 0 0 1 3.56 0v-2l-.38.07c-.38.07-.88.1-1.4.1zm-2.57 3.47a18.07 18.07 0 0 0-6.58 1.7.78.78 0 1 1-.72-1.38c1.71-.9 3.99-1.53 6.52-1.83v-2.4l-10.28-1.79a2.36 2.36 0 0 1-1.9-2.27v-15.4c0-1.14.92-2.06 2.06-2.06h26.94c1.14 0 2.07.92 2.07 2.06v15.4c0 1.09-.84 2.09-1.91 2.27l-10.28 1.79v2.4c2.53.3 4.8.93 6.52 1.83a.78.78 0 0 1-.73 1.38c-2.22-1.16-5.55-1.83-9.14-1.83a28.01 28.01 0 0 0-2.57.13zm-10.9-23.87a.5.5 0 0 0-.5.5v15.4c0 .32.3.67.61.73l12.23 2.13c.58.1 1.68.1 2.26 0l12.23-2.13a.8.8 0 0 0 .61-.73v-15.4a.5.5 0 0 0-.5-.5zm25.66 15.4H596.8a.78.78 0 0 1-.78-.78v-12.83c0-.44.35-.79.78-.79h24.38c.43 0 .78.35.78.79v12.83c0 .43-.35.78-.78.78zm-23.6-1.57h22.82v-11.26h-22.82zM609 798.5a.64.64 0 1 1 0 1.28.64.64 0 0 1 0-1.28z"/></defs><g><g transform="translate(-575 -758)"><g><use fill="#65bf95" xlink:href="#a4cua"/></g><g><use fill="#fff" xlink:href="#a4cub"/></g></g></g></svg>