<svg xmlns="http://www.w3.org/2000/svg" xmlns:xlink="http://www.w3.org/1999/xlink" width="67" height="67" viewBox="0 0 67 67"><defs><path id="jkkza" d="M609 984a32 32 0 1 1 0 64 32 32 0 0 1 0-64z"/><path id="jkkzb" d="M607.4 1023.19a11.06 11.06 0 1 1 11.05-11.05c-.01 6.1-4.97 11.05-11.06 11.05zm0-20.53a9.5 9.5 0 0 0 0 18.96 9.5 9.5 0 0 0 0-18.96zm1.42 24.81a13.5 13.5 0 0 1 6.71 2.65.78.78 0 0 1-.47 1.4h-15.35a.78.78 0 0 1-.46-1.4c1.99-1.5 4.29-2.4 6.72-2.65v-.5c-3.09-.3-6.1-1.55-8.55-3.75l-.36.36a.78.78 0 1 1-1.11-1.1l.9-.9a.84.84 0 0 1 .02-.02l.9-.9a.78.78 0 1 1 1.1 1.1l-.34.35a13.35 13.35 0 0 0 18.29-.54 13.35 13.35 0 0 0 .53-18.28l-.33.33a.78.78 0 0 1-1.11 0c-.3-.3-.3-.8 0-1.1l.9-.9a.73.73 0 0 1 .02-.03l.9-.89a.78.78 0 0 1 1.1 1.1l-.37.38a14.92 14.92 0 0 1-9.64 24.78zm-6.22 2.5h9.58c-3-1.32-6.58-1.32-9.58 0z"/></defs><g><g transform="translate(-575 -982)"><g><use fill="#65bf95" xlink:href="#jkkza"/></g><g><use fill="#fff" xlink:href="#jkkzb"/></g></g></g></svg>