<svg xmlns="http://www.w3.org/2000/svg" xmlns:xlink="http://www.w3.org/1999/xlink" width="67" height="67" viewBox="0 0 67 67"><defs><path id="4o77a" d="M182 984a32 32 0 1 1 0 64 32 32 0 0 1 0-64z"/><path id="4o77b" d="M180.58 1019.85a1.43 1.43 0 1 1 2.2 1.19v3.3a.78.78 0 1 1-1.56 0v-3.3c-.39-.26-.64-.7-.64-1.2zm12.33 11.69h-21.82a.78.78 0 0 1-.78-.79v-17.96c0-.43.35-.78.78-.78h3.07v-3.7a7.85 7.85 0 0 1 15.68 0v3.7h3.07c.43 0 .78.35.78.78v17.96c0 .44-.35.79-.78.79zm-21.03-1.57h20.24v-16.4h-20.24zm16.4-21.67a6.28 6.28 0 0 0-12.55 0v3.7h12.54z"/></defs><g><g transform="translate(-148 -982)"><g><use fill="#65bf95" xlink:href="#4o77a"/></g><g><use fill="#fff" xlink:href="#4o77b"/></g></g></g></svg>